<svg width="32" height="32" viewBox="0 0 32 32" fill="#A249ED" xmlns="http://www.w3.org/2000/svg">
<path d="M13.1344 14.6969C13.4062 14.5 13.5375 14.175 13.5375 13.7281C13.5469 13.5156 13.5031 13.3063 13.4094 13.1156C13.325 12.9625 13.2 12.8344 13.0469 12.7437C12.8881 12.6475 12.7118 12.5837 12.5281 12.5562C12.3281 12.5187 12.125 12.5 11.925 12.5031H9.72812V14.9937H12.1062C12.5156 14.9969 12.8625 14.8969 13.1344 14.6969V14.6969ZM13.5031 16.9469C13.1969 16.7125 12.7875 16.5969 12.2781 16.5969H9.72188V19.5344H12.2281C12.4625 19.5344 12.6781 19.5125 12.8875 19.4688C13.0856 19.43 13.2744 19.3536 13.4438 19.2437C13.6031 19.1406 13.7313 19 13.8281 18.8188C13.9219 18.6375 13.9688 18.4062 13.9688 18.1281C13.9688 17.575 13.8125 17.1844 13.5031 16.9469V16.9469ZM16 2C8.26875 2 2 8.26875 2 16C2 23.7312 8.26875 30 16 30C23.7312 30 30 23.7312 30 16C30 8.26875 23.7312 2 16 2ZM18.7031 10.9656H23.0281V12.0188H18.7031V10.9656ZM16 19.65C15.7977 20.034 15.5088 20.3657 15.1562 20.6187C14.7875 20.875 14.3781 21.0625 13.9438 21.1719C13.4893 21.2937 13.0205 21.3536 12.55 21.35H7.375V10.6906H12.4062C12.9156 10.6906 13.3781 10.7375 13.8 10.825C14.2188 10.9125 14.575 11.0625 14.875 11.2656C15.1719 11.4688 15.4062 11.7406 15.5719 12.0781C15.7344 12.4125 15.8188 12.8313 15.8188 13.3281C15.8188 13.8656 15.6969 14.3094 15.4531 14.6687C15.2062 15.0281 14.85 15.3187 14.3656 15.5469C15.025 15.7344 15.5094 16.0688 15.8281 16.5375C16.1531 17.0125 16.3125 17.5813 16.3125 18.25C16.3125 18.7937 16.2094 19.2594 16 19.65ZM24.7125 18H19.1375C19.1375 18.6062 19.3469 19.1875 19.6625 19.5C19.9813 19.8094 20.4375 19.9656 21.0344 19.9656C21.4656 19.9656 21.8312 19.8563 22.1437 19.6406C22.4531 19.425 22.6406 19.1969 22.7094 18.9594H24.5781C24.2781 19.8875 23.8219 20.55 23.2031 20.95C22.5906 21.35 21.8406 21.55 20.9688 21.55C20.3594 21.55 19.8125 21.45 19.3219 21.2594C18.85 21.075 18.425 20.7937 18.075 20.4312C17.7299 20.059 17.4632 19.6211 17.2906 19.1437C17.1 18.6156 17.0063 18.0594 17.0125 17.5C17.0125 16.9219 17.1094 16.3844 17.2969 15.8844C17.6562 14.9125 18.4031 14.1344 19.3563 13.7312C19.8656 13.5187 20.4125 13.4125 20.9656 13.4187C21.6219 13.4187 22.1906 13.5438 22.6844 13.8C23.1597 14.0447 23.5724 14.3954 23.8906 14.825C24.2063 15.2531 24.4281 15.7406 24.5688 16.2906C24.7031 16.8312 24.75 17.4 24.7125 18V18ZM20.9 15.0125C20.5625 15.0125 20.2781 15.0719 20.0594 15.1875C19.8406 15.3031 19.6594 15.4469 19.5219 15.6125C19.3909 15.7724 19.2941 15.9575 19.2375 16.1562C19.1875 16.3219 19.1531 16.4906 19.1406 16.6625H22.5938C22.5437 16.1219 22.3563 15.7219 22.1063 15.4406C21.8438 15.1625 21.4219 15.0125 20.9 15.0125V15.0125Z" fill="#A249ED"/>
</svg>
