<svg width="32" height="32" viewBox="0 0 32 32" fill="#A249ED" xmlns="http://www.w3.org/2000/svg">
<path d="M15.9986 9.836C14.3635 9.836 12.7953 10.4856 11.6391 11.6418C10.4829 12.798 9.83331 14.3662 9.83331 16.0013C9.83331 17.6365 10.4829 19.2047 11.6391 20.3609C12.7953 21.5171 14.3635 22.1667 15.9986 22.1667C17.6338 22.1667 19.202 21.5171 20.3582 20.3609C21.5144 19.2047 22.164 17.6365 22.164 16.0013C22.164 14.3662 21.5144 12.798 20.3582 11.6418C19.202 10.4856 17.6338 9.836 15.9986 9.836V9.836ZM15.9986 20.0053C14.9364 20.0053 13.9176 19.5833 13.1664 18.8322C12.4153 18.0811 11.9933 17.0623 11.9933 16C11.9933 14.9377 12.4153 13.9189 13.1664 13.1678C13.9176 12.4167 14.9364 11.9947 15.9986 11.9947C17.0609 11.9947 18.0797 12.4167 18.8308 13.1678C19.582 13.9189 20.004 14.9377 20.004 16C20.004 17.0623 19.582 18.0811 18.8308 18.8322C18.0797 19.5833 17.0609 20.0053 15.9986 20.0053V20.0053Z" fill="#A249ED"/>
<path d="M22.408 11.0467C23.2018 11.0467 23.8453 10.4031 23.8453 9.60933C23.8453 8.81551 23.2018 8.172 22.408 8.172C21.6142 8.172 20.9706 8.81551 20.9706 9.60933C20.9706 10.4031 21.6142 11.0467 22.408 11.0467Z" fill="#A249ED"/>
<path d="M27.3774 8.14799C27.0687 7.35089 26.597 6.62703 25.9925 6.02273C25.3879 5.41843 24.6639 4.94701 23.8667 4.63865C22.9338 4.28846 21.9483 4.09911 20.952 4.07865C19.668 4.02265 19.2614 4.00665 16.0054 4.00665C12.7494 4.00665 12.332 4.00665 11.0587 4.07865C10.0632 4.09806 9.07836 4.28745 8.14669 4.63865C7.34927 4.94665 6.62504 5.41795 6.02046 6.02229C5.41589 6.62664 4.94432 7.35069 4.63602 8.14799C4.28576 9.0808 4.09684 10.0664 4.07735 11.0627C4.02002 12.3453 4.00269 12.752 4.00269 16.0093C4.00269 19.2653 4.00269 19.68 4.07735 20.956C4.09735 21.9533 4.28535 22.9373 4.63602 23.872C4.94519 24.669 5.41721 25.3928 6.02193 25.997C6.62665 26.6013 7.35077 27.0728 8.14802 27.3813C9.07793 27.7456 10.0632 27.9485 11.0614 27.9813C12.3454 28.0373 12.752 28.0547 16.008 28.0547C19.264 28.0547 19.6814 28.0547 20.9547 27.9813C21.9508 27.9611 22.9363 27.7722 23.8694 27.4227C24.6664 27.1136 25.3902 26.6417 25.9946 26.0373C26.5991 25.4328 27.0709 24.709 27.38 23.912C27.7307 22.9787 27.9187 21.9947 27.9387 20.9973C27.996 19.7147 28.0134 19.308 28.0134 16.0507C28.0134 12.7933 28.0134 12.38 27.9387 11.104C27.9232 10.0937 27.7333 9.09365 27.3774 8.14799V8.14799ZM25.7534 20.8573C25.7448 21.6257 25.6045 22.387 25.3387 23.108C25.1385 23.6265 24.8319 24.0973 24.4388 24.4902C24.0456 24.8831 23.5746 25.1894 23.056 25.3893C22.343 25.6539 21.5898 25.7942 20.8294 25.804C19.5627 25.8627 19.2054 25.8773 15.9574 25.8773C12.7067 25.8773 12.3747 25.8773 11.084 25.804C10.3239 25.7947 9.57112 25.6544 8.85869 25.3893C8.33827 25.1906 7.86535 24.8849 7.47054 24.4919C7.07572 24.099 6.7678 23.6275 6.56669 23.108C6.30461 22.3947 6.16443 21.6424 6.15202 20.8827C6.09469 19.616 6.08135 19.2587 6.08135 16.0107C6.08135 12.7613 6.08135 12.4293 6.15202 11.1373C6.16064 10.3693 6.30089 9.60855 6.56669 8.88799C6.97335 7.83599 7.80669 7.00799 8.85869 6.60532C9.57147 6.34151 10.3241 6.20127 11.084 6.19065C12.352 6.13332 12.708 6.11732 15.9574 6.11732C19.2067 6.11732 19.54 6.11732 20.8294 6.19065C21.5899 6.1998 22.3432 6.34008 23.056 6.60532C23.5746 6.80568 24.0455 7.11226 24.4386 7.50536C24.8318 7.89846 25.1383 8.36942 25.3387 8.88799C25.6008 9.60125 25.7409 10.3535 25.7534 11.1133C25.8107 12.3813 25.8254 12.7373 25.8254 15.9867C25.8254 19.2347 25.8254 19.584 25.768 20.8587H25.7534V20.8573Z" fill="#A249ED"/>
</svg>
